<svg xmlns="http://www.w3.org/2000/svg" viewBox="0 0 800 1000"><rect width="800" height="1000" fill="#12151a"/><path d="M205 850 285 520 355 455 455 480 535 560 600 850Z" fill="#282d45" stroke="#9ba6ff" stroke-width="10"/><path d="M330 255 405 205 480 270 452 415 392 455 335 400Z" fill="#8b96e6"/><path d="M350 315h42M414 330h42" stroke="#181c2a" stroke-width="12" stroke-linecap="round"/><path d="M300 555 450 620 520 570" fill="none" stroke="#b7c0ff" stroke-width="13"/><path d="M270 665 455 720 560 670" fill="none" stroke="#6fe0d0" stroke-width="11"/><path d="M40 250h260M0 330h330M470 210h290M500 290h300M20 760h300M500 720h280" stroke="#7a8cff" stroke-width="14" opacity=".55"/></svg>