<svg xmlns="http://www.w3.org/2000/svg" viewBox="0 0 800 1000" role="img" aria-labelledby="t d"><title id="t">XRP — 외교관</title><desc id="d">두 금융 도시를 연결하는 정돈된 추상 외교관 캐릭터</desc><rect width="800" height="1000" fill="#11171a"/><g stroke="#58b7bd" stroke-width="10" fill="none" opacity=".55"><path d="M70 250h200l80 80"/><path d="M730 250H530l-80 80"/><path d="M80 760h210l70-70"/><path d="M720 760H510l-70-70"/></g><path d="M235 850 285 525 350 465h100l65 60 50 325Z" fill="#26383b" stroke="#7fd5d9" stroke-width="10"/><path d="M325 255 400 205 475 255 460 410 400 455 340 410Z" fill="#71b8bc"/><path d="M345 320h42M413 320h42" stroke="#152024" stroke-width="13" stroke-linecap="round"/><path d="M365 397h70" stroke="#152024" stroke-width="12" stroke-linecap="round"/><path d="M315 535 400 610 485 535" fill="none" stroke="#b9eef0" stroke-width="13"/><path d="M400 610v180" stroke="#b9eef0" stroke-width="10"/><circle cx="400" cy="610" r="22" fill="#b9eef0"/><path d="M130 900h540" stroke="#39595d" stroke-width="9"/></svg>